<?xml version="1.0" encoding="utf-8"?>
<!-- Generator: Adobe Illustrator 19.0.0, SVG Export Plug-In . SVG Version: 6.00 Build 0)  -->
<svg version="1.1" id="Layer_1" xmlns="http://www.w3.org/2000/svg" xmlns:xlink="http://www.w3.org/1999/xlink" x="0px" y="0px"
	 viewBox="-360 133 131 49" style="enable-background:new -360 133 131 49;" xml:space="preserve">
<style type="text/css">
	.st0{fill:#6EC007;}
	.st1{fill:#FF5200;}
	.st2{fill:#34A203;}
</style>
<g>
	<polygon class="st0" points="-331.4,141.7 -331.4,169.7 -336.4,169.7 -336.4,151.7 -341.8,161.3 -344.4,165.6 -346.7,169.6 
		-347.4,170 -345.1,163.7 -342.9,158.5 -336.4,141.7 	"/>
	<path d="M-308.8,160.3c0.6,0,1.6-0.2,3-0.6l0.3,0.1c-0.8,0.7-1.8,1.2-2.9,1.6l2.6,8.6h-5.4l-2.1-7.7c-0.6,0.1-1.2,0.1-1.9,0.1
		c-2,0-3.8-0.2-5.8-0.7l-2.5,8.2h-4.8l3.4-9.8c-0.7-0.3-1.5-0.7-2.5-1.3l1.7-4.6c0.1,0.2,0.9,0.8,2.2,1.9l4.5-12.9l4.3-2.4
		L-308.8,160.3z M-314,160.3l-3.2-12l-3.1,10.2C-318.2,159.5-316.2,160-314,160.3z"/>
	<path d="M-279.9,174.9h-0.4c-1.4-1-2.5-2.1-3.6-3.4c-0.5-0.6-1.7-2-3.6-4.6c-2.9-3.6-6.3-8.8-10.5-15.4V170h-4.6v-26.7l4.6-2.3
		c3.5,9,6.6,15.8,9.4,20.5V142h4.6v25.3c0,1,0.1,1.8,0.5,2.4C-282.8,171.7-281.4,173.4-279.9,174.9z"/>
	<path d="M-263.7,145c-0.8-0.7-1.9-0.9-3.1-0.9c-2.3,0-4.2,1.1-5.7,3.4c-1.4,2.1-2,5.1-2,8.9c0,2.9,0.6,5.3,1.6,7.1
		c1.3,2.3,3.3,3.4,6,3.4c0.6,0,1.1-0.1,1.7-0.5v-9.2l-4.6,1.1v-5.8l11.6,2.4l-0.2,0.4l-2,0.5v12.3c-1.1,0.8-2.1,1.5-3.1,1.8
		c-1.3,0.5-2.7,0.7-4.1,0.7c-2.8,0-5.2-0.7-7.3-2.3c-2-1.6-3.5-3.6-4.4-6.3c-0.6-1.6-0.7-3.4-0.7-5.1c0-1.3,0.2-2.9,0.7-4.8
		c0.4-1.8,0.9-3.4,1.5-4.5c1.4-2.8,3.2-4.8,5.4-6.1c1-0.7,1.9-1,2.6-1.2c0.7-0.1,1.6-0.2,2.9-0.2c1.9,0,4,0.9,6.3,2.7l-1.7,3.2
		L-263.7,145z"/>
	<path d="M-234.5,155.5c0,3.7-0.8,7.1-2.6,10.1c-2,3.4-4.8,5.2-8.3,5.2c-3.5,0-6.3-1.8-8.4-5.3c-1.7-3-2.6-6.3-2.6-10.1
		c0-3.7,0.9-7.1,2.7-10c2.1-3.4,4.9-5.1,8.5-5.1c3.4,0,6.1,1.8,8.1,5.3C-235.4,148.5-234.5,151.8-234.5,155.5z M-240.2,155.3
		c0-2.7-0.3-5.1-0.9-7.2c-0.9-3-2.4-4.6-4.5-4.6c-2,0-3.4,1.6-4.3,4.7c-0.7,2-0.9,4.5-0.9,7.2c0,2.8,0.3,5.1,0.8,7.3
		c0.9,3.2,2.4,4.7,4.5,4.7s3.5-1.6,4.5-4.8C-240.5,160.6-240.2,158.2-240.2,155.3z"/>
	<g>
		<path class="st1" d="M-325.9,154.2c0,0,3.5,3,5.7,4.3c0,0,1.7,0.9,4.3,1.5l1.9,0.3l0.6,2c0,0-3,0.5-7.6-0.6c0,0-1.5-0.3-4-1.6
			c-2.5-1.3-2.5-1.3-2.5-1.3L-325.9,154.2z"/>
		<path class="st1" d="M-308.8,160.3l0.4,1.1c0,0,1.3-0.3,2.9-1.6l-0.3-0.1C-305.9,159.7-307.8,160.3-308.8,160.3z"/>
	</g>
	<g>
		<g>
			<polygon class="st2" points="-341.8,161.3 -342.9,158.5 -349.9,140.6 -354.5,143 -354.5,169.7 -349.9,169.7 -349.9,151.4 
				-345.1,163.7 -344.4,165.6 -342.8,169.7 -338.7,169.7 			"/>
		</g>
	</g>
</g>
</svg>
