<?xml version="1.0" encoding="utf-8"?>
<!-- Generator: Adobe Illustrator 18.0.0, SVG Export Plug-In . SVG Version: 6.00 Build 0)  -->
<!DOCTYPE svg PUBLIC "-//W3C//DTD SVG 1.1//EN" "http://www.w3.org/Graphics/SVG/1.1/DTD/svg11.dtd">
<svg version="1.1" id="Layer_1" xmlns="http://www.w3.org/2000/svg" xmlns:xlink="http://www.w3.org/1999/xlink" x="0px" y="0px"
	 viewBox="414.5 255.5 131 49" enable-background="new 414.5 255.5 131 49" xml:space="preserve">
<g>
	<path fill="#FF5200" d="M440.4,293.3h-5.4V274l-5.8,10.3l3.4,9h-4.4l-1.8-4.4l-2.5,4.3l-0.7,0.4l2.5-6.7l-5.2-13.3v19.7h-4.9v-28.7
		l4.9-2.5l7.5,19.2l7-18.1h5.4L440.4,293.3L440.4,293.3z"/>
	<path d="M464.6,282.9c0.6,0,1.7-0.2,3.2-0.6l0.3,0.1c-0.9,0.7-1.9,1.3-3.1,1.7l2.8,9.2H462l-2.3-8.3c-0.6,0.1-1.3,0.1-2,0.1
		c-2.1,0-4.1-0.2-6.2-0.7l-2.7,8.8h-5.2l3.6-10.5c-0.7-0.3-1.6-0.8-2.7-1.4l1.8-4.9c0.1,0.2,1,0.9,2.4,2l4.8-13.8l4.6-2.6
		L464.6,282.9z M459.1,282.9l-3.4-12.9l-3.3,11C454.5,282,456.7,282.6,459.1,282.9z"/>
	<path d="M495.7,298.6h-0.4c-1.5-1.1-2.7-2.3-3.9-3.6c-0.5-0.6-1.8-2.2-3.9-4.9c-3.1-3.9-6.8-9.4-11.3-16.5v19.7h-4.9v-28.7l4.9-2.5
		c3.8,9.7,7.1,17,10.1,22v-20.8h4.9v27.2c0,1.1,0.1,1.9,0.5,2.6C492.6,295.1,494,297,495.7,298.6z"/>
	<path d="M513,266.5c-0.9-0.7-2-1-3.3-1c-2.5,0-4.5,1.2-6.1,3.6c-1.5,2.3-2.2,5.5-2.2,9.6c0,3.1,0.6,5.7,1.7,7.6
		c1.4,2.5,3.5,3.7,6.4,3.7c0.6,0,1.2-0.1,1.8-0.5v-9.9l-4.9,1.2v-6.2l12.5,2.6l-0.2,0.4l-2.1,0.5v13.2c-1.2,0.9-2.3,1.6-3.3,1.9
		c-1.4,0.5-2.9,0.7-4.4,0.7c-3,0-5.6-0.8-7.8-2.5c-2.2-1.7-3.8-3.9-4.7-6.8c-0.6-1.7-0.8-3.6-0.8-5.5c0-1.4,0.2-3.1,0.7-5.1
		c0.4-1.9,1-3.6,1.6-4.8c1.5-3,3.4-5.1,5.8-6.5c1.1-0.7,2-1.1,2.8-1.3c0.7-0.1,1.7-0.2,3.1-0.2c2,0,4.3,1,6.8,2.9l-1.8,3.4
		L513,266.5z"/>
	<path d="M544.4,277.8c0,4-0.9,7.6-2.8,10.8c-2.2,3.7-5.2,5.6-8.9,5.6c-3.8,0-6.8-1.9-9-5.7c-1.8-3.2-2.8-6.8-2.8-10.8
		c0-4,1-7.6,2.9-10.7c2.3-3.6,5.3-5.5,9.1-5.5c3.6,0,6.6,1.9,8.7,5.7C543.4,270.2,544.4,273.8,544.4,277.8z M538.3,277.5
		c0-2.9-0.3-5.5-1-7.7c-1-3.2-2.6-4.9-4.8-4.9c-2.1,0-3.7,1.7-4.6,5c-0.7,2.2-1,4.8-1,7.7c0,3,0.3,5.5,0.9,7.8c1,3.4,2.6,5,4.8,5
		c2.2,0,3.8-1.7,4.8-5.1C538,283.2,538.3,280.6,538.3,277.5z"/>
</g>
</svg>
